<svg xmlns="http://www.w3.org/2000/svg" width="32" height="32" viewBox="0 0 32 32"><path fill="#444" d="M25.888 13.152c0-1.216-.992-2.24-2.24-2.24h-2.24v-1.6a.943.943 0 0 0-.96-.96H11.52a.943.943 0 0 0-.96.96v1.6H8.32c-1.248 0-2.24.992-2.24 2.24v2.88h.96v6.688c0 .544.416.96.96.96h15.936c.544 0 .96-.416.96-.96V16h.96v-2.848zm-14.656-3.84c0-.16.16-.32.32-.32h8.928c.16 0 .32.16.32.32v1.6h-9.568v-1.6zM24.288 22.72c0 .16-.16.32-.32.32H8.032c-.16 0-.32-.16-.32-.32V16h1.92v3.2h2.56V16h7.648v3.2h2.56V16h1.92v6.72zm-14.016-4.8h1.28v.64h-1.28v-.64zm1.248-.64h-1.28V16h1.28v1.28zm8.96.64h1.28v.64h-1.28v-.64zm1.248-.64h-1.28V16h1.28v1.28zm3.52-1.92H6.752v-2.24c0-.864.704-1.6 1.6-1.6h15.296c.864 0 1.6.704 1.6 1.6v2.24z"/><path fill="#444" d="M23.968 23.872H8.032c-.64 0-1.152-.512-1.152-1.152v-6.528h-.96V13.12a2.43 2.43 0 0 1 2.432-2.432H10.4V9.28c0-.64.512-1.152 1.152-1.152h8.928c.64 0 1.152.512 1.152 1.152v1.408h2.048a2.43 2.43 0 0 1 2.432 2.432v3.072h-.96v6.528c-.032.608-.544 1.152-1.184 1.152zM6.304 15.808h.96v6.912c0 .416.352.768.768.768h15.936a.779.779 0 0 0 .768-.768v-6.912h.96v-2.656c0-1.12-.928-2.048-2.048-2.048h-2.432V9.312a.779.779 0 0 0-.768-.768H11.52a.779.779 0 0 0-.768.768v1.792H8.32c-1.12 0-2.048.928-2.048 2.048v2.656zm17.664 7.424H8.032a.505.505 0 0 1-.512-.512v-6.912h2.304v3.2h2.144v-3.2H20v3.2h2.144v-3.2h2.304v6.912c.032.256-.192.512-.48.512zm-16.064-7.04v6.528c0 .064.064.128.128.128h15.936a.138.138 0 0 0 .128-.128v-6.528h-1.504v3.2h-2.944v-3.2h-7.264v3.2H9.44v-3.2H7.904zm14.048 2.56h-1.664v-1.024h1.664v1.024zm-1.28-.384h.896v-.256h-.896v.256zm-8.928.384H10.08v-1.024h1.664v1.024zm-1.28-.384h.896v-.256h-.896v.256zm11.488-.896h-1.664v-1.664h1.664v1.664zm-1.28-.384h.896v-.896h-.896v.896zm-8.928.384H10.08v-1.664h1.664v1.664zm-1.28-.384h.896v-.896h-.896v.896zm14.976-1.536H6.56V13.12c0-.992.8-1.792 1.792-1.792h15.296c.992 0 1.792.8 1.792 1.792v2.432zm-18.496-.384h18.112V13.12a1.42 1.42 0 0 0-1.408-1.408H8.352a1.42 1.42 0 0 0-1.408 1.408v2.048zm14.048-4.064h-9.984V9.312c0-.288.224-.512.512-.512h8.96c.288 0 .512.224.512.512v1.792zm-9.568-.384h9.184V9.312a.138.138 0 0 0-.128-.128h-8.96a.138.138 0 0 0-.128.128v1.408z"/><path fill="#444" d="M16.512 13.984h-1.024V12.96h1.024v1.024zm-.64-.416h.256v-.256h-.256v.256z"/><path fill="#444" d="M15.68 13.152h.64v.64h-.64v-.64zm2.112.832h-1.024V12.96h1.024v1.024zm-.64-.416h.256v-.256h-.256v.256z"/><path fill="#444" d="M16.96 13.152h.64v.64h-.64v-.64zm-1.728.832h-1.024V12.96h1.024v1.024zm-.64-.416h.256v-.256h-.256v.256z"/><path fill="#444" d="M14.4 13.152h.64v.64h-.64v-.64z"/></svg>