<svg xmlns="http://www.w3.org/2000/svg" width="32" height="32" viewBox="0 0 32 32"><path fill="#444" d="M22.144 20.512c-.032-.032-.096-.064-.16-.064s-.096.032-.16.064l-1.344 1.344c-.096.096-.096.224 0 .288l.448.448c.032.032.096.064.16.064s.096-.032.16-.064l1.344-1.344c.096-.096.096-.224 0-.288l-.448-.448zm-1.024 1.632l-.16-.16 1.056-1.056.16.16-1.056 1.056zM17.6 10.848l-.416-.096-.384 1.44.416.096.384-1.44zm-2.4 1.344l-.384-1.44-.416.096.384 1.44.416-.096zm4.768.16l-.288-.288-1.056 1.056.288.288 1.056-1.056zm-7.04 11.072l-4.352-4.352c-.128-.128-.288-.192-.448-.192s-.32.064-.448.192l-2.112 2.112a.644.644 0 0 0-.128.704s0 .032.032.032c.48.8 1.184 1.696 2.048 2.56s1.76 1.568 2.56 2.048h.032a.934.934 0 0 0 .288.064c.16 0 .32-.064.448-.192l2.112-2.112c.224-.192.224-.608-.032-.864zm-.32.608l-2.112 2.112c-.064.064-.128.064-.16.064s-.064 0-.096-.032h-.032c-.8-.48-1.632-1.152-2.432-1.952s-1.472-1.632-1.952-2.432l-.032-.064a.197.197 0 0 1 .032-.224l2.112-2.112c.064-.064.128-.064.16-.064s.096 0 .16.064l4.352 4.352a.207.207 0 0 1 .064.16s0 .064-.064.128zm.8-10.944l-1.056-1.056-.288.288 1.056 1.056.288-.288zm13.152-2.976s0-.032-.032-.032c-.48-.8-1.184-1.696-2.048-2.56s-1.76-1.568-2.56-2.048h-.032a.934.934 0 0 0-.288-.064c-.16 0-.32.064-.448.192l-2.08 2.08a.619.619 0 0 0 0 .896l4.352 4.352c.128.128.288.192.448.192s.32-.064.448-.192l2.112-2.112a.644.644 0 0 0 .128-.704zm-.416.416l-2.112 2.112c-.064.064-.128.064-.16.064s-.096 0-.16-.064l-4.32-4.384c-.096-.096-.096-.224 0-.288l2.112-2.112c.064-.064.128-.064.16-.064s.064 0 .096.032h.064c.8.48 1.632 1.152 2.432 1.952s1.472 1.632 1.952 2.432l.032.064c-.032.064-.032.16-.096.256zM19.808 15.2l1.44-.384-.096-.416-1.44.384.096.416zm-.096 2.016l1.44.384.096-.416-1.44-.384-.096.416zm-7.424-2.432l-1.44-.384-.096.416 1.44.384.096-.416zM16 9.632a6.344 6.344 0 0 0-4.512 1.856 6.374 6.374 0 0 0 0 9.024c1.248 1.248 2.88 1.856 4.512 1.856s3.264-.608 4.512-1.856a6.374 6.374 0 0 0 0-9.024A6.344 6.344 0 0 0 16 9.632zm4.192 10.56A5.908 5.908 0 0 1 16 21.92c-1.6 0-3.072-.608-4.192-1.728-2.304-2.304-2.304-6.08 0-8.416A5.908 5.908 0 0 1 16 10.048c1.6 0 3.072.608 4.192 1.728 2.336 2.336 2.336 6.112 0 8.416zm4.384-7.36l-1.536 1.536c-.288-1.28-.928-2.496-1.92-3.488s-2.208-1.632-3.488-1.92l1.536-1.536-.48-.48s-.064-.032-.096-.032c-.32 0-1.312.32-1.312.32s-1.12.864-1.888 1.568c-1.632.128-3.232.832-4.512 2.08s-1.952 2.88-2.08 4.512c-.704.768-1.568 1.888-1.568 1.888s-.416 1.28-.288 1.408l.48.48 1.536-1.536c.288 1.28.928 2.496 1.92 3.488s2.208 1.632 3.488 1.92l-1.536 1.536.48.48s.064.032.096.032c.32 0 1.312-.32 1.312-.32s1.12-.864 1.888-1.568c1.632-.128 3.232-.832 4.512-2.08a7.204 7.204 0 0 0 2.08-4.512c.704-.768 1.568-1.888 1.568-1.888s.416-1.28.288-1.408l-.48-.48zM7.424 18.56l-.064-.064c.032-.224.128-.64.256-1.024.16-.192.672-.832 1.152-1.408 0 .352.032.704.096 1.056l-1.44 1.44zm10.08-10.944c.352-.096.8-.224 1.024-.256l.064.064-1.44 1.44a5.892 5.892 0 0 0-1.056-.096c.544-.48 1.216-.992 1.408-1.152zm-3.008 16.768c-.352.096-.8.224-1.024.256l-.032-.064 1.44-1.44c.352.064.704.096 1.056.096-.576.48-1.248.992-1.44 1.152zm8.256-7.616A6.763 6.763 0 0 1 20.8 20.8a6.866 6.866 0 0 1-4.032 1.952c-.256.032-.512.032-.768.032-.416 0-.832-.032-1.248-.128a6.733 6.733 0 0 1-3.52-1.856 6.613 6.613 0 0 1-1.856-3.552c-.032-.16-.064-.32-.064-.448v-.064c-.032-.16-.032-.32-.032-.48v-.032c0-.32 0-.672.032-.992.096-1.472.768-2.912 1.888-4.032a6.866 6.866 0 0 1 4.032-1.952c.256-.032.512-.032.768-.032.416 0 .832.032 1.248.128a6.733 6.733 0 0 1 3.52 1.856 6.613 6.613 0 0 1 1.856 3.552c.032.16.064.288.064.448v.064c.032.16.032.32.032.48v.032c.064.32.064.672.032.992zm1.632-2.272c-.16.192-.672.832-1.152 1.408 0-.352-.032-.704-.096-1.056l1.44-1.44.064.064a5.927 5.927 0 0 1-.256 1.024zm-7.584.928l-.672.288-.704-2.112-.384.128.704 2.144-3.136 1.344.16.384 3.104-1.344.192.608.416-.128-.16-.512 5.216.032v-.416l-4.576-.064-.16-.352zm-4.768 4.224l.288.288 1.056-1.056-.288-.288-1.056 1.056zm.16-2.848l-1.44.384.096.416 1.44-.384-.096-.416zm6.4 2.112l1.056 1.056.288-.288-1.056-1.056-.288.288zm-4.192 2.24l.416.096.384-1.44-.416-.096-.384 1.44zm2.4-1.344l.384 1.44.416-.096-.384-1.44-.416.096z"/></svg>