<svg xmlns="http://www.w3.org/2000/svg" width="32" height="32" viewBox="0 0 32 32"><path fill="#444" d="M19.072 18.368c2.72.416 4.608 1.376 4.608 2.496 0 1.504-3.424 2.752-7.68 2.752S8.32 22.4 8.32 20.864c0-1.12 1.888-2.08 4.608-2.496-3.04.448-5.184 1.504-5.184 2.72 0 1.632 3.68 2.944 8.256 2.944s8.256-1.312 8.256-2.944c0-1.216-2.144-2.272-5.184-2.72z"/><path fill="#444" d="M18.592 18.944c1.888.288 2.752.832 2.752 1.6 0 1.056-2.4 1.888-5.344 1.888s-5.344-.864-5.344-1.888c0-.768.8-1.344 2.688-1.664-2.112.288-3.104.96-3.104 1.792 0 1.12 2.56 2.048 5.728 2.048s5.728-.928 5.728-2.048c.032-.832-.992-1.44-3.104-1.728z"/><path fill="#444" d="M11.52 15.84c0 2.272 2.016 4.128 4.48 4.128s4.48-1.856 4.48-4.128S16 7.488 16 7.488s-4.48 6.08-4.48 8.352zm6.048-5.024c2.08 3.36 2.304 4.608 2.304 4.992 0 1.952-1.728 3.52-3.872 3.52s-3.872-1.568-3.872-3.52c0-.384.224-1.632 2.304-4.992.576-.928 1.12-1.76 1.568-2.4.448.64 1.024 1.504 1.568 2.4z"/><path fill="#444" d="M16 20.096c-2.528 0-4.576-1.888-4.576-4.256 0-2.304 4.288-8.16 4.48-8.416l.064-.096.064.096c.192.256 4.48 6.112 4.48 8.416.064 2.336-1.984 4.256-4.512 4.256zm0-12.448c-.608.832-4.352 6.144-4.352 8.192 0 2.24 1.952 4.032 4.352 4.032s4.352-1.824 4.352-4.032c0-2.048-3.744-7.36-4.352-8.192zm0 11.776c-2.176 0-3.968-1.632-3.968-3.616 0-.384.224-1.664 2.304-5.024.48-.8 1.056-1.664 1.568-2.4L16 8.256l.096.128c.608.864 1.12 1.664 1.568 2.4 2.08 3.36 2.304 4.64 2.304 5.056 0 1.984-1.792 3.584-3.968 3.584zm0-10.816a56.987 56.987 0 0 0-1.504 2.304c-2.048 3.328-2.272 4.544-2.272 4.928 0 1.888 1.696 3.424 3.776 3.424s3.776-1.536 3.776-3.424c0-.384-.224-1.6-2.272-4.96A68.434 68.434 0 0 0 16 8.608z"/><path fill="#444" d="M13.248 15.648c0-.128-.096-.256-.256-.256s-.256.096-.256.256c0 1.632 1.28 2.944 2.88 2.944a.252.252 0 0 0 .256-.256.252.252 0 0 0-.256-.256c-1.28.032-2.368-1.056-2.368-2.432z"/><path fill="#444" d="M13.024 15.52c-.096 0-.128.064-.128.16 0 1.568 1.248 2.848 2.752 2.848.096 0 .128-.064.128-.16s-.064-.16-.128-.16c-1.376 0-2.496-1.152-2.496-2.56a.138.138 0 0 0-.128-.128z"/></svg>