<svg xmlns="http://www.w3.org/2000/svg" viewBox="0 0 255.1 368.5"><circle cx="127.6" cy="184.2" r="126.3" fill="none" stroke="#66469b" stroke-miterlimit="10"/><path d="M152.1 203.1c21.7 3.3 36.7 11 36.7 19.9 0 12-27.3 21.9-61.2 21.9s-61.2-9.7-61.2-21.9c0-8.9 15.1-16.6 36.7-19.9-24.2 3.6-41.3 12-41.3 21.7 0 13 29.3 23.5 65.8 23.5s65.8-10.5 65.8-23.5c0-9.7-17.1-18.1-41.3-21.7z" fill="#66469b" stroke="#fff" stroke-width=".25" stroke-miterlimit="10"/><path d="M148.2 207.7c15.1 2.3 21.9 6.6 21.9 12.8 0 8.4-19.1 15.1-42.6 15.1s-42.5-7-42.5-15.1c0-6.1 6.4-10.7 21.4-13.3-16.8 2.3-24.7 7.7-24.7 14.3 0 8.9 20.4 16.3 45.7 16.3s45.7-7.4 45.7-16.3c.1-6.6-8-11.5-24.9-13.8z" fill="#66469b" stroke="#fff" stroke-width=".25" stroke-miterlimit="10"/><path d="M91.8 183c0 18.1 16.1 32.9 35.7 32.9s35.7-14.8 35.7-32.9-35.7-66.6-35.7-66.6-35.7 48.5-35.7 66.6zm48.3-40.1c16.6 26.8 18.4 36.7 18.4 39.8 0 15.6-13.8 28.1-30.9 28.1s-30.9-12.5-30.9-28.1c0-3.1 1.8-13 18.4-39.8 4.6-7.4 8.9-14 12.5-19.1 3.5 5.1 8.1 12 12.5 19.1z" fill="#66469b"/><path d="M127.6 216.9c-20.2 0-36.5-15.1-36.5-33.9 0-18.4 34.2-65.1 35.7-67.1l.5-.8.5.8c1.5 2 35.7 48.7 35.7 67.1.5 18.6-15.8 33.9-35.9 33.9zm0-99.2c-4.8 6.6-34.7 49-34.7 65.3 0 17.9 15.6 32.1 34.7 32.1s34.7-14.5 34.7-32.1c0-16.4-29.9-58.7-34.7-65.3zm0 93.8c-17.3 0-31.6-13-31.6-28.8 0-3.1 1.8-13.3 18.4-40.1 3.8-6.4 8.4-13.3 12.5-19.1l.8-1 .8 1c4.8 6.9 8.9 13.3 12.5 19.1 16.6 26.8 18.4 37 18.4 40.3-.2 15.9-14.5 28.6-31.8 28.6zm0-86.2c-4.1 5.9-8.2 12.2-12 18.4-16.3 26.5-18.1 36.2-18.1 39.3 0 15.1 13.5 27.3 30.1 27.3s30.1-12.2 30.1-27.3c0-3.1-1.8-12.8-18.1-39.5-3.6-5.7-7.4-11.5-12-18.2z" fill="#fff"/><path d="M105.6 181.4c0-1-.8-2-2-2-1.3 0-2 .8-2 2 0 13 10.2 23.5 23 23.5 1 0 2-.8 2-2 0-1-.8-2-2-2-10.3.2-19-8.5-19-19.5z" fill="#fff"/><path d="M103.8 180.4c-.8 0-1 .5-1 1.3 0 12.5 9.9 22.7 21.9 22.7.8 0 1-.5 1-1.3s-.5-1.3-1-1.3c-11 0-19.9-9.2-19.9-20.4.1-.5-.5-1-1-1z" fill="#66469b"/></svg>